<?xml version="1.0" encoding="UTF-8" standalone="no"?>
<svg
   viewBox="0 0 64 64"
   width="48px"
   height="48px"
   version="1.1"
   id="svg1"
   sodipodi:docname="menu.svg"
   inkscape:version="1.4.2 (ebf0e940d0, 2025-05-08)"
   xmlns:inkscape="http://www.inkscape.org/namespaces/inkscape"
   xmlns:sodipodi="http://sodipodi.sourceforge.net/DTD/sodipodi-0.dtd"
   xmlns="http://www.w3.org/2000/svg"
   xmlns:svg="http://www.w3.org/2000/svg">
  <defs
     id="defs1" />
  <sodipodi:namedview
     id="namedview1"
     pagecolor="#ffffff"
     bordercolor="#000000"
     borderopacity="0.25"
     inkscape:showpageshadow="2"
     inkscape:pageopacity="0.0"
     inkscape:pagecheckerboard="0"
     inkscape:deskcolor="#d1d1d1"
     inkscape:zoom="16.645833"
     inkscape:cx="24"
     inkscape:cy="24"
     inkscape:window-width="1920"
     inkscape:window-height="1008"
     inkscape:window-x="1920"
     inkscape:window-y="0"
     inkscape:window-maximized="1"
     inkscape:current-layer="svg1" />
  <path
     d="M51 46c1.104 0 2 .895 2 2 0 1.105-.896 2-2 2-.601 0-37.399 0-38 0-1.104 0-2-.895-2-2 0-1.105.896-2 2-2C13.601 46 50.399 46 51 46zM51 30c1.104 0 2 .895 2 2 0 1.105-.896 2-2 2-.601 0-37.399 0-38 0-1.104 0-2-.895-2-2 0-1.105.896-2 2-2C13.601 30 50.399 30 51 30zM51 14c1.104 0 2 .895 2 2 0 1.105-.896 2-2 2-.601 0-37.399 0-38 0-1.104 0-2-.895-2-2 0-1.105.896-2 2-2C13.601 14 50.399 14 51 14z"
     id="path1"
     style="fill:#ffffff;fill-opacity:0.97464788" />
</svg>
