<?xml version="1.0" encoding="UTF-8" standalone="no"?>
<svg
   viewBox="0 0 26 26"
   width="26px"
   height="26px"
   version="1.1"
   id="svg1"
   sodipodi:docname="icons8-music.svg"
   inkscape:version="1.4.2 (ebf0e940d0, 2025-05-08)"
   xmlns:inkscape="http://www.inkscape.org/namespaces/inkscape"
   xmlns:sodipodi="http://sodipodi.sourceforge.net/DTD/sodipodi-0.dtd"
   xmlns="http://www.w3.org/2000/svg"
   xmlns:svg="http://www.w3.org/2000/svg">
  <defs
     id="defs1">
    <linearGradient
       id="swatch1"
       inkscape:swatch="solid">
      <stop
         style="stop-color:#000000;stop-opacity:1;"
         offset="0"
         id="stop1" />
    </linearGradient>
  </defs>
  <sodipodi:namedview
     id="namedview1"
     pagecolor="#ffffff"
     bordercolor="#000000"
     borderopacity="0.25"
     inkscape:showpageshadow="2"
     inkscape:pageopacity="0.0"
     inkscape:pagecheckerboard="0"
     inkscape:deskcolor="#d1d1d1"
     inkscape:zoom="30.730769"
     inkscape:cx="13"
     inkscape:cy="13"
     inkscape:window-width="1920"
     inkscape:window-height="1008"
     inkscape:window-x="1920"
     inkscape:window-y="0"
     inkscape:window-maximized="1"
     inkscape:current-layer="svg1" />
  <path
     d="M 21.5625 0.171875 L 10.453125 3.570313 C 9.105469 3.953125 8.015625 5.355469 8.015625 6.703125 L 8.015625 18.261719 C 8.015625 18.261719 8.015625 18.417969 8.015625 18.421875 C 8.015625 18.421875 7.210938 17.878906 5.417969 18.132813 C 2.785156 18.507813 0.648438 20.527344 0.648438 22.648438 C 0.648438 24.769531 2.785156 26.066406 5.417969 25.691406 C 8.054688 25.320313 9.984375 23.363281 9.984375 21.242188 C 9.984375 21.242188 9.984375 12.175781 9.984375 11.234375 C 9.984375 10.296875 11.113281 9.890625 11.113281 9.890625 L 20.9375 6.8125 C 20.9375 6.8125 22.023438 6.449219 22.023438 7.453125 C 22.023438 8.460938 22.023438 15.484375 22.023438 15.484375 C 22.023438 15.484375 22.023438 15.488281 22.023438 15.492188 C 22.023438 15.492188 21.023438 14.914063 19.230469 15.132813 C 16.597656 15.453125 14.460938 17.429688 14.460938 19.550781 C 14.460938 21.671875 16.597656 23.011719 19.230469 22.691406 C 21.863281 22.375 24 20.394531 24 18.273438 L 24 1.910156 C 24 0.566406 22.90625 -0.214844 21.5625 0.171875 Z"
     id="path1"
     style="fill:#ffffff;fill-opacity:1" />
</svg>
