<?xml version="1.0" encoding="UTF-8" standalone="no"?>
<svg
   viewBox="0 0 26 26"
   width="26px"
   height="26px"
   version="1.1"
   id="svg1"
   sodipodi:docname="icons8-no-music.svg"
   inkscape:version="1.4.2 (ebf0e940d0, 2025-05-08)"
   xmlns:inkscape="http://www.inkscape.org/namespaces/inkscape"
   xmlns:sodipodi="http://sodipodi.sourceforge.net/DTD/sodipodi-0.dtd"
   xmlns="http://www.w3.org/2000/svg"
   xmlns:svg="http://www.w3.org/2000/svg">
  <defs
     id="defs1" />
  <sodipodi:namedview
     id="namedview1"
     pagecolor="#ffffff"
     bordercolor="#000000"
     borderopacity="0.25"
     inkscape:showpageshadow="2"
     inkscape:pageopacity="0.0"
     inkscape:pagecheckerboard="0"
     inkscape:deskcolor="#d1d1d1"
     inkscape:zoom="30.730769"
     inkscape:cx="13"
     inkscape:cy="13"
     inkscape:window-width="1920"
     inkscape:window-height="1008"
     inkscape:window-x="1920"
     inkscape:window-y="0"
     inkscape:window-maximized="1"
     inkscape:current-layer="svg1" />
  <path
     d="M 21.5625 0.171875 L 10.453125 3.570313 C 9.105469 3.953125 8.015625 5.355469 8.015625 6.703125 L 8.015625 18.261719 C 8.015625 18.261719 8.015625 18.417969 8.015625 18.421875 C 8.015625 18.421875 7.210938 17.878906 5.417969 18.132813 C 2.785156 18.507813 0.648438 20.527344 0.648438 22.648438 C 0.648438 24.769531 2.785156 26.066406 5.417969 25.691406 C 8.054688 25.320313 9.984375 23.363281 9.984375 21.242188 C 9.984375 21.242188 9.984375 12.175781 9.984375 11.234375 C 9.984375 10.296875 11.113281 9.890625 11.113281 9.890625 L 20.9375 6.8125 C 20.9375 6.8125 22.023438 6.449219 22.023438 7.453125 C 22.023438 8.460938 22.023438 15.484375 22.023438 15.484375 C 22.023438 15.484375 22.023438 15.488281 22.023438 15.492188 C 22.023438 15.492188 21.023438 14.914063 19.230469 15.132813 C 16.597656 15.453125 14.460938 17.429688 14.460938 19.550781 C 14.460938 21.671875 16.597656 23.011719 19.230469 22.691406 C 21.863281 22.375 24 20.394531 24 18.273438 L 24 1.910156 C 24 0.566406 22.90625 -0.214844 21.5625 0.171875 Z"
     id="path1" />
  <path
     style="fill:#ffffff;fill-rule:evenodd"
     d="m 1.7246558,1.0738423 c -0.035645,0.2554946 -0.1410047,0.3449341 0.097622,0.4881101 0.04661,0.027966 0.1123148,0.1049684 0.1627034,0.1301627 0.0097,0.00485 0.024871,-0.00767 0.032541,0 0.00767,0.00767 -0.00767,0.024871 0,0.032541 0.014219,0.014219 0.1613777,0.029889 0.1627034,0.032541 0.0097,0.019403 -0.00855,0.045142 0,0.065081 0.06074,0.1417272 0.1378526,0.2017501 0.2277847,0.3254068 0.1432706,0.1969971 0.2718339,0.3942187 0.4230288,0.5857322 0.3073497,0.3893096 0.4936401,0.652045 0.8785982,0.9762202 0.1128502,0.095032 0.2328392,0.1821328 0.3579475,0.2603255 0.029087,0.018179 0.068209,0.014893 0.097622,0.032541 0.026308,0.015785 0.037641,0.051361 0.065081,0.065081 0.019403,0.0097 0.044501,-0.00686 0.065081,0 0.1020477,0.034016 0.050589,0.056057 0.1627034,0 0.086016,-0.043008 0.1627034,-0.020844 0.1627034,-0.1301627"
     id="path2" />
  <rect
     style="fill:#000000;fill-opacity:1;fill-rule:evenodd"
     id="rect2"
     width="5.1088862"
     height="0.81351709"
     x="4.3484764"
     y="0.39858201"
     ry="0"
     transform="rotate(45)" />
  <rect
     style="fill:#000000;fill-opacity:1;fill-rule:evenodd"
     id="rect3"
     width="5.1088862"
     height="0.81351709"
     x="-1.7491027"
     y="-7.3096786"
     ry="0"
     transform="rotate(135)" />
</svg>
